<?xml version="1.0" standalone="no"?>
<!DOCTYPE svg PUBLIC "-//W3C//DTD SVG 20010904//EN"
 "http://www.w3.org/TR/2001/REC-SVG-20010904/DTD/svg10.dtd">
<svg version="1.0" xmlns="http://www.w3.org/2000/svg"
 width="474.000000pt" height="357.000000pt" viewBox="0 0 474.000000 357.000000"
 preserveAspectRatio="xMidYMid meet">

<g transform="translate(0.000000,357.000000) scale(0.100000,-0.100000)"
fill="#000000" stroke="none">
<path d="M4470 3561 c0 -5 -15 -12 -32 -15 -88 -17 -158 -108 -177 -226 -7
-40 -11 -281 -11 -622 l0 -558 110 0 110 0 0 -95 0 -95 105 0 105 0 0 810 0
810 -105 0 c-58 0 -105 -4 -105 -9z"/>
<path d="M2260 3413 c-92 -12 -238 -46 -331 -79 -540 -188 -921 -630 -1036
-1202 -27 -134 -24 -432 6 -570 128 -598 570 -1061 1154 -1211 912 -234 1827
368 1963 1292 22 146 14 389 -15 529 -65 300 -208 564 -426 783 -129 129 -242
212 -403 293 -238 121 -409 163 -687 167 -104 2 -206 1 -225 -2z m440 -138
c458 -81 848 -369 1052 -777 102 -204 138 -351 145 -588 8 -269 -28 -444 -136
-665 -177 -362 -477 -623 -861 -749 -164 -53 -292 -69 -500 -63 -243 7 -401
46 -605 149 -398 200 -676 559 -771 998 -22 103 -30 345 -14 466 33 267 153
529 345 759 22 27 78 81 124 122 231 203 505 325 811 363 97 11 301 4 410 -15z"/>
<path d="M2240 3155 c-499 -84 -905 -432 -1054 -902 -60 -191 -76 -432 -42
-617 67 -353 266 -658 557 -854 481 -323 1093 -306 1557 43 559 420 684 1206
284 1780 -31 44 -101 125 -157 181 -199 199 -443 323 -730 369 -108 18 -311
18 -415 0z m436 -240 c441 -91 790 -460 855 -904 27 -189 -9 -429 -91 -599
-296 -617 -1067 -818 -1627 -423 -311 219 -487 606 -445 979 16 145 43 236
108 367 159 322 470 545 829 594 93 13 272 6 371 -14z"/>
<path d="M2315 2749 c-402 -58 -720 -388 -766 -797 -72 -634 557 -1140 1174
-945 421 132 684 538 628 968 -52 391 -354 701 -750 770 -91 16 -192 18 -286
4z"/>
<path d="M0 2880 c0 -273 4 -490 9 -490 5 0 11 -13 14 -29 9 -45 102 -137 189
-188 l78 -45 0 -89 0 -89 105 0 104 0 3 92 3 93 70 38 c87 47 157 115 187 181
23 51 23 54 26 534 l3 482 -61 0 -60 0 0 -432 c0 -238 -4 -438 -8 -444 -14
-22 -53 -27 -73 -8 -18 16 -19 35 -19 451 l0 433 -60 0 -60 0 0 -473 c0 -446
-1 -475 -18 -490 -26 -23 -58 -21 -76 5 -14 20 -16 83 -16 490 l0 468 -60 0
-60 0 0 -433 c0 -426 0 -434 -21 -453 -19 -17 -23 -17 -47 -3 l-27 15 -3 437
-2 437 -60 0 -60 0 0 -490z"/>
<path d="M263 1743 c-17 -25 -18 -80 -21 -813 -2 -522 0 -797 7 -821 6 -19 29
-52 50 -72 36 -33 46 -37 96 -37 49 0 60 4 92 33 66 59 63 17 63 876 0 694 -2
785 -16 821 l-16 40 -119 0 c-118 0 -119 0 -136 -27z"/>
<path d="M4450 1738 c-19 -32 -20 -53 -20 -826 0 -876 -2 -845 62 -881 15 -9
28 -19 28 -23 0 -13 110 -9 127 4 20 17 64 61 81 81 16 21 18 1587 2 1587 -5
0 -10 7 -10 16 0 9 -8 29 -17 45 l-17 29 -108 0 -108 0 -20 -32z"/>
</g>
</svg>
